<?xml version="1.0" ?><svg style="enable-background:new 0 0 512 512;" version="1.1" viewBox="0 0 512 512" xml:space="preserve" xmlns="http://www.w3.org/2000/svg" xmlns:xlink="http://www.w3.org/1999/xlink"><g id="_x38__x2C__health_care_x2C__Building_x2C__clinic_x2C__hospital"><g id="XMLID_4175_"><g id="XMLID_4176_"><polygon id="XMLID_266_" points="298.5,54 298.5,84 271,84 271,111.5 241,111.5 241,84 213.5,84 213.5,54      241,54 241,26.5 271,26.5 271,54    " style="fill:#5CBEFF;"/><rect height="41.667" id="XMLID_265_" style="fill:#33383F;" width="110" x="375" y="245.5"/><rect height="41.667" id="XMLID_264_" style="fill:#33383F;" width="110" x="27" y="245.5"/><rect height="38.333" id="XMLID_263_" style="fill:#33383F;" width="110" x="375" y="447.167"/><rect height="38.333" id="XMLID_262_" style="fill:#33383F;" width="110" x="27" y="447.167"/><path d="M485,280.5v170H375v-170H485z" id="XMLID_4315_" style="fill:#3F4751;"/><polygon id="XMLID_260_" points="430,320.5 400,320.5 400,350.5 400,380.5 430,380.5 460,380.5 460,350.5      460,320.5    " style="fill:#FFD400;"/><rect height="30" id="XMLID_259_" style="fill:#FAA71A;" width="30" x="400" y="350.5"/><rect height="30" id="XMLID_258_" style="fill:#FAA71A;" width="30" x="430" y="320.5"/><rect height="30" id="XMLID_257_" style="fill:#FFD400;" width="30" x="430" y="350.5"/><rect height="30" id="XMLID_256_" style="fill:#FFD400;" width="30" x="400" y="320.5"/><path d="M137,280.5v170H27v-170H137z" id="XMLID_4298_" style="fill:#3F4751;"/><polygon id="XMLID_254_" points="82,320.5 52,320.5 52,350.5 52,380.5 82,380.5 112,380.5 112,350.5      112,320.5    " style="fill:#FFD400;"/><rect height="30" id="XMLID_253_" style="fill:#FAA71A;" width="30" x="52" y="350.5"/><rect height="30" id="XMLID_252_" style="fill:#FAA71A;" width="30" x="82" y="320.5"/><rect height="30" id="XMLID_251_" style="fill:#FFD400;" width="30" x="82" y="350.5"/><rect height="30" id="XMLID_250_" style="fill:#FFD400;" width="30" x="52" y="320.5"/><path d="M441,70.5c11.05,0,20,8.95,20,20s-8.95,20-20,20s-20-8.95-20-20     S429.95,70.5,441,70.5z" id="XMLID_249_" style="fill:#D94556;"/><path d="M61,70.5c13.81,0,25,11.19,25,25s-11.19,25-25,25s-25-11.19-25-25     S47.19,70.5,61,70.5z" id="XMLID_248_" style="fill:#D94556;"/><path d="M376,455.5c-0.142,0-229.694,0-240,0c0-16.142,0-330.41,0-345     c8.023,0,232.003,0,240,0C376,129.593,376,436.347,376,455.5z" id="XMLID_4275_" style="fill:#757D8C;"/><polygon id="XMLID_246_" points="296,145.5 256,145.5 216,145.5 176,145.5 176,185.5 176,225.5 176,265.5      176,305.5 176,345.5 216,345.5 256,345.5 296,345.5 336,345.5 336,305.5 336,265.5 336,225.5 336,185.5 336,145.5    " style="fill:#FFD400;"/><rect height="40" id="XMLID_245_" style="fill:#FAA71A;" width="40" x="296" y="305.5"/><rect height="40" id="XMLID_244_" style="fill:#FAA71A;" width="40" x="216" y="305.5"/><rect height="40" id="XMLID_243_" style="fill:#FAA71A;" width="40" x="256" y="265.5"/><rect height="40" id="XMLID_242_" style="fill:#FAA71A;" width="40" x="176" y="265.5"/><rect height="40" id="XMLID_241_" style="fill:#FAA71A;" width="40" x="216" y="225.5"/><rect height="40" id="XMLID_240_" style="fill:#FAA71A;" width="40" x="296" y="225.5"/><rect height="40" id="XMLID_239_" style="fill:#FAA71A;" width="40" x="296" y="145.5"/><rect height="40" id="XMLID_238_" style="fill:#FAA71A;" width="40" x="256" y="185.5"/><circle cx="448.5" cy="188" id="XMLID_237_" r="7.5" style="fill:#07CC66;"/><circle cx="373.5" cy="53" id="XMLID_236_" r="7.5" style="fill:#07CC66;"/><rect height="35" id="XMLID_235_" style="fill:#3F4751;" width="80" x="296" y="450.5"/><rect height="40" id="XMLID_234_" style="fill:#FFD400;" width="40" x="296" y="265.5"/><rect height="40" id="XMLID_233_" style="fill:#FFD400;" width="40" x="296" y="185.5"/><polygon id="XMLID_232_" points="296,450.5 296,485.5 216,485.5 216,450.5 216,385.5 296,385.5    " style="fill:#33383F;"/><rect height="40" id="XMLID_231_" style="fill:#FFD400;" width="40" x="256" y="305.5"/><rect height="40" id="XMLID_230_" style="fill:#FFD400;" width="40" x="256" y="225.5"/><rect height="40" id="XMLID_229_" style="fill:#FFD400;" width="40" x="256" y="145.5"/><rect height="40" id="XMLID_228_" style="fill:#FFD400;" width="40" x="216" y="265.5"/><rect height="40" id="XMLID_227_" style="fill:#FFD400;" width="40" x="216" y="185.5"/><rect height="40" id="XMLID_226_" style="fill:#FAA71A;" width="40" x="216" y="145.5"/><rect height="35" id="XMLID_225_" style="fill:#3F4751;" width="80" x="136" y="450.5"/><rect height="40" id="XMLID_224_" style="fill:#FFD400;" width="40" x="176" y="305.5"/><rect height="40" id="XMLID_223_" style="fill:#FFD400;" width="40" x="176" y="225.5"/><rect height="40" id="XMLID_222_" style="fill:#FAA71A;" width="40" x="176" y="185.5"/><rect height="40" id="XMLID_221_" style="fill:#FFD400;" width="40" x="176" y="145.5"/><circle cx="173.5" cy="38" id="XMLID_220_" r="7.5" style="fill:#07CC66;"/><circle cx="98.5" cy="153" id="XMLID_219_" r="7.5" style="fill:#07CC66;"/><circle cx="58.5" cy="203" id="XMLID_218_" r="7.5" style="fill:#07CC66;"/></g></g></g><g id="Layer_1"/></svg>